<mxfile host="app.diagrams.net" modified="2023-03-19T14:45:17.751Z" agent="5.0 (X11)" etag="RaMy06BGHLnkdgrOtCSh" version="21.0.8" type="github">
  <diagram name="Page-1" id="e3a06f82-3646-2815-327d-82caf3d4e204">
    <mxGraphModel dx="1226" dy="678" grid="1" gridSize="10" guides="1" tooltips="1" connect="1" arrows="1" fold="1" page="1" pageScale="1.5" pageWidth="1169" pageHeight="826" background="none" math="0" shadow="0">
      <root>
        <mxCell id="0" style=";html=1;" />
        <mxCell id="1" style=";html=1;" parent="0" />
        <mxCell id="sc8MJLwOmtzSrlmjD8fI-22" value="" style="rounded=1;whiteSpace=wrap;html=1;strokeWidth=0.5;dashed=1;" parent="1" vertex="1">
          <mxGeometry x="380" y="80" width="540" height="400" as="geometry" />
        </mxCell>
        <mxCell id="sc8MJLwOmtzSrlmjD8fI-8" value="" style="rounded=0;whiteSpace=wrap;html=1;strokeWidth=0.5;dashed=1;fillColor=#f9f7ed;strokeColor=#36393d;" parent="1" vertex="1">
          <mxGeometry x="420" y="115" width="460" height="190" as="geometry" />
        </mxCell>
        <mxCell id="6a7d8f32e03d9370-61" value="" style="whiteSpace=wrap;html=1;fillColor=#f5f5f5;fontSize=14;strokeColor=#666666;verticalAlign=top;strokeWidth=0.5;dashed=1;fontColor=#333333;" parent="1" vertex="1">
          <mxGeometry x="420" y="310" width="460" height="130" as="geometry" />
        </mxCell>
        <mxCell id="6a7d8f32e03d9370-60" value="" style="whiteSpace=wrap;html=1;fillColor=#eeeeee;fontSize=14;strokeColor=#36393d;verticalAlign=top;strokeWidth=0.5;rounded=1;dashed=1;" parent="1" vertex="1">
          <mxGeometry x="580" y="140" width="270" height="150" as="geometry" />
        </mxCell>
        <mxCell id="sc8MJLwOmtzSrlmjD8fI-15" value="" style="whiteSpace=wrap;html=1;fillColor=#ffe6cc;fontSize=14;strokeColor=#d79b00;verticalAlign=top;strokeWidth=0.5;dashed=1;rounded=1;" parent="1" vertex="1">
          <mxGeometry x="580" y="330" width="270" height="90" as="geometry" />
        </mxCell>
        <mxCell id="sc8MJLwOmtzSrlmjD8fI-16" value="" style="whiteSpace=wrap;html=1;fillColor=#f5f5f5;fontSize=14;strokeColor=#666666;verticalAlign=top;strokeWidth=0.5;rounded=1;fontColor=#333333;dashed=1;" parent="1" vertex="1">
          <mxGeometry x="600" y="160" width="230" height="110" as="geometry" />
        </mxCell>
        <mxCell id="sc8MJLwOmtzSrlmjD8fI-23" value="Host" style="text;html=1;strokeColor=none;fillColor=none;align=center;verticalAlign=middle;whiteSpace=wrap;rounded=0;" parent="1" vertex="1">
          <mxGeometry x="620" y="90" width="60" height="9" as="geometry" />
        </mxCell>
        <mxCell id="8y-Ty1TA_QiDueggfgZ--1" value="Kernel Space" style="text;html=1;strokeColor=none;fillColor=none;align=center;verticalAlign=middle;whiteSpace=wrap;rounded=0;" vertex="1" parent="1">
          <mxGeometry x="430" y="320" width="80" height="20" as="geometry" />
        </mxCell>
        <mxCell id="8y-Ty1TA_QiDueggfgZ--2" value="User Space" style="text;html=1;strokeColor=none;fillColor=none;align=center;verticalAlign=middle;whiteSpace=wrap;rounded=0;" vertex="1" parent="1">
          <mxGeometry x="430" y="128" width="80" height="20" as="geometry" />
        </mxCell>
        <mxCell id="8y-Ty1TA_QiDueggfgZ--3" value="KVM" style="text;html=1;strokeColor=none;fillColor=none;align=center;verticalAlign=middle;whiteSpace=wrap;rounded=0;" vertex="1" parent="1">
          <mxGeometry x="675" y="360" width="80" height="20" as="geometry" />
        </mxCell>
        <mxCell id="8y-Ty1TA_QiDueggfgZ--4" value="" style="endArrow=none;html=1;rounded=0;entryX=1;entryY=0.5;entryDx=0;entryDy=0;exitX=0;exitY=0.5;exitDx=0;exitDy=0;strokeWidth=0.5;dashed=1;" edge="1" parent="1">
          <mxGeometry width="50" height="50" relative="1" as="geometry">
            <mxPoint x="600" y="214.5" as="sourcePoint" />
            <mxPoint x="830" y="214.5" as="targetPoint" />
          </mxGeometry>
        </mxCell>
        <mxCell id="8y-Ty1TA_QiDueggfgZ--5" value="Kernel Space" style="text;html=1;strokeColor=none;fillColor=none;align=center;verticalAlign=middle;whiteSpace=wrap;rounded=0;" vertex="1" parent="1">
          <mxGeometry x="607" y="240" width="80" height="20" as="geometry" />
        </mxCell>
        <mxCell id="8y-Ty1TA_QiDueggfgZ--6" value="User Space" style="text;html=1;strokeColor=none;fillColor=none;align=center;verticalAlign=middle;whiteSpace=wrap;rounded=0;" vertex="1" parent="1">
          <mxGeometry x="600" y="170" width="80" height="20" as="geometry" />
        </mxCell>
        <mxCell id="8y-Ty1TA_QiDueggfgZ--7" value="Qemu" style="text;html=1;strokeColor=none;fillColor=none;align=center;verticalAlign=middle;whiteSpace=wrap;rounded=0;" vertex="1" parent="1">
          <mxGeometry x="700" y="146" width="30" height="10" as="geometry" />
        </mxCell>
        <mxCell id="8y-Ty1TA_QiDueggfgZ--12" value="Guest OS" style="text;html=1;strokeColor=none;fillColor=none;align=center;verticalAlign=middle;whiteSpace=wrap;rounded=0;" vertex="1" parent="1">
          <mxGeometry x="700" y="210" width="30" height="10" as="geometry" />
        </mxCell>
      </root>
    </mxGraphModel>
  </diagram>
</mxfile>
